<?xml version="1.0" encoding="UTF-8" standalone="no"?>
<!DOCTYPE svg PUBLIC "-//W3C//DTD SVG 1.1//EN" "http://www.w3.org/Graphics/SVG/1.1/DTD/svg11.dtd">
<svg width="100%" height="100%" viewBox="0 0 500 300" version="1.1" xmlns="http://www.w3.org/2000/svg" xmlns:xlink="http://www.w3.org/1999/xlink" xml:space="preserve" style="fill-rule:evenodd;clip-rule:evenodd;stroke-linecap:round;stroke-linejoin:round;stroke-miterlimit:1.41421;">
    <g transform="matrix(1,0,0,1,5,53)">
        <clipPath id="_clip1">
            <path d="M247.32,103.5C252.509,103.5 256.722,107.533 256.722,112.5C256.722,117.467 252.509,121.5 247.32,121.5C242.13,121.5 237.917,117.467 237.917,112.5C237.917,107.533 242.13,103.5 247.32,103.5ZM263.683,96.161L262.933,95.5L255,104.504L255.75,105.165L263.683,96.161Z"/>
        </clipPath>
        <g clip-path="url(#_clip1)">
            <g transform="matrix(1.43113,0,0,1.8,-105.626,-92)">
                <ellipse cx="246.16" cy="113.75" rx="1.16" ry="1.25" style="fill:rgb(184,211,217);"/>
            </g>
        </g>
        <path d="M247.32,103.5C252.509,103.5 256.722,107.533 256.722,112.5C256.722,117.467 252.509,121.5 247.32,121.5C242.13,121.5 237.917,117.467 237.917,112.5C237.917,107.533 242.13,103.5 247.32,103.5ZM263.683,96.161L262.933,95.5L255,104.504L255.75,105.165L263.683,96.161Z" style="fill:none;stroke-width:4.17px;stroke:rgb(97,186,204);"/>
    </g>
    <g transform="matrix(1,0,0,1,-95,43.9139)">
        <path d="M184.167,58.586L115.333,155.919L185.167,155.919L185.167,166.586L100.167,166.586L100.167,156.586L169.167,59.253L102,59.253L102,48.586L184.167,48.586L184.167,58.586Z" style="fill:rgb(15,129,152);fill-rule:nonzero;"/>
        <path d="M280.833,127.586C280.833,133.475 279.806,138.919 277.75,143.919C275.694,148.919 272.833,153.253 269.167,156.919C265.5,160.586 261.111,163.447 256,165.503C250.889,167.558 245.278,168.586 239.167,168.586C233.167,168.586 227.611,167.558 222.5,165.503C217.389,163.447 213,160.586 209.333,156.919C205.667,153.253 202.806,148.919 200.75,143.919C198.694,138.919 197.667,133.475 197.667,127.586C197.667,121.697 198.694,116.253 200.75,111.253C202.806,106.253 205.667,101.919 209.333,98.253C213,94.586 217.389,91.725 222.5,89.669C227.611,87.614 233.167,86.586 239.167,86.586C245.278,86.586 250.889,87.614 256,89.669C261.111,91.725 265.5,94.586 269.167,98.253C272.833,101.919 275.694,106.253 277.75,111.253C279.806,116.253 280.833,121.697 280.833,127.586ZM268.833,127.586C268.833,123.253 268.139,119.169 266.75,115.336C265.361,111.503 263.389,108.169 260.833,105.336C258.278,102.503 255.167,100.253 251.5,98.586C247.833,96.919 243.722,96.086 239.167,96.086C234.611,96.086 230.528,96.919 226.917,98.586C223.306,100.253 220.222,102.503 217.667,105.336C215.111,108.169 213.139,111.503 211.75,115.336C210.361,119.169 209.667,123.253 209.667,127.586C209.667,131.919 210.361,136.003 211.75,139.836C213.139,143.669 215.111,147.003 217.667,149.836C220.222,152.669 223.306,154.892 226.917,156.503C230.528,158.114 234.611,158.919 239.167,158.919C243.722,158.919 247.833,158.114 251.5,156.503C255.167,154.892 258.278,152.669 260.833,149.836C263.389,147.003 265.361,143.669 266.75,139.836C268.139,136.003 268.833,131.919 268.833,127.586Z" style="fill:rgb(15,129,152);fill-rule:nonzero;"/>
        <path d="M382.667,127.586C382.667,133.475 381.639,138.919 379.583,143.919C377.528,148.919 374.667,153.253 371,156.919C367.333,160.586 362.944,163.447 357.833,165.503C352.722,167.558 347.111,168.586 341,168.586C335,168.586 329.444,167.558 324.333,165.503C319.222,163.447 314.833,160.586 311.167,156.919C307.5,153.253 304.639,148.919 302.583,143.919C300.528,138.919 299.5,133.475 299.5,127.586C299.5,121.697 300.528,116.253 302.583,111.253C304.639,106.253 307.5,101.919 311.167,98.253C314.833,94.586 319.222,91.725 324.333,89.669C329.444,87.614 335,86.586 341,86.586C347.111,86.586 352.722,87.614 357.833,89.669C362.944,91.725 367.333,94.586 371,98.253C374.667,101.919 377.528,106.253 379.583,111.253C381.639,116.253 382.667,121.697 382.667,127.586ZM370.667,127.586C370.667,123.253 369.972,119.169 368.583,115.336C367.194,111.503 365.222,108.169 362.667,105.336C360.111,102.503 357,100.253 353.333,98.586C349.667,96.919 345.556,96.086 341,96.086C336.444,96.086 332.361,96.919 328.75,98.586C325.139,100.253 322.056,102.503 319.5,105.336C316.944,108.169 314.972,111.503 313.583,115.336C312.194,119.169 311.5,123.253 311.5,127.586C311.5,131.919 312.194,136.003 313.583,139.836C314.972,143.669 316.944,147.003 319.5,149.836C322.056,152.669 325.139,154.892 328.75,156.503C332.361,158.114 336.444,158.919 341,158.919C345.556,158.919 349.667,158.114 353.333,156.503C357,154.892 360.111,152.669 362.667,149.836C365.222,147.003 367.194,143.669 368.583,139.836C369.972,136.003 370.667,131.919 370.667,127.586Z" style="fill:rgb(15,129,152);fill-rule:nonzero;"/>
        <path d="M458.833,96.586L412.167,156.753L460.5,156.753L460.5,166.586L397.167,166.586L397.167,158.586L443.667,98.086L399.5,98.086L399.5,88.586L458.833,88.586L458.833,96.586Z" style="fill:rgb(15,129,152);fill-rule:nonzero;"/>
        <rect x="481" y="40.586" width="11.333" height="126" style="fill:rgb(15,129,152);fill-rule:nonzero;"/>
        <path d="M582.167,121.586C581.833,114.253 579.472,108.169 575.083,103.336C570.694,98.503 564.444,96.086 556.333,96.086C552.556,96.086 549.056,96.781 545.833,98.169C542.611,99.558 539.778,101.447 537.333,103.836C534.889,106.225 532.944,108.947 531.5,112.003C530.056,115.058 529.222,118.253 529,121.586L582.167,121.586ZM593.667,125.253C593.667,126.031 593.667,126.864 593.667,127.753C593.667,128.642 593.611,129.586 593.5,130.586L528.833,130.586C528.944,134.475 529.722,138.142 531.167,141.586C532.611,145.031 534.611,148.031 537.167,150.586C539.722,153.142 542.722,155.169 546.167,156.669C549.611,158.169 553.333,158.919 557.333,158.919C563.222,158.919 568.306,157.558 572.583,154.836C576.861,152.114 580.111,148.975 582.333,145.419L590.833,152.086C586.167,157.975 581.028,162.197 575.417,164.753C569.806,167.308 563.778,168.586 557.333,168.586C551.556,168.586 546.194,167.558 541.25,165.503C536.306,163.447 532.056,160.586 528.5,156.919C524.944,153.253 522.139,148.919 520.083,143.919C518.028,138.919 517,133.475 517,127.586C517,121.697 518,116.253 520,111.253C522,106.253 524.778,101.919 528.333,98.253C531.889,94.586 536.056,91.725 540.833,89.669C545.611,87.614 550.778,86.586 556.333,86.586C562.444,86.586 567.833,87.614 572.5,89.669C577.167,91.725 581.056,94.503 584.167,98.003C587.278,101.503 589.639,105.586 591.25,110.253C592.861,114.919 593.667,119.919 593.667,125.253Z" style="fill:rgb(15,129,152);fill-rule:nonzero;"/>
    </g>
</svg>
